<svg xmlns="http://www.w3.org/2000/svg" width="20.036" height="20.036" viewBox="0 0 20.036 20.036">
  <path id="facebook-square" d="M17.889,32H2.147A2.147,2.147,0,0,0,0,34.147V49.889a2.147,2.147,0,0,0,2.147,2.147h6.14V45.224H5.47V42.018H8.287V39.576c0-2.782,1.655-4.316,4.19-4.316a17.219,17.219,0,0,1,2.482.215V38.2h-1.4a1.6,1.6,0,0,0-1.807,1.731v2.084H14.83l-.492,3.207H11.753v6.811h6.136a2.147,2.147,0,0,0,2.147-2.147V34.147A2.147,2.147,0,0,0,17.889,32Z" transform="translate(0 -32)" fill="#5dbe3f"/>
</svg>
