<svg xmlns="http://www.w3.org/2000/svg" width="110.072" height="109.944" viewBox="0 0 110.072 109.944">
  <g id="Group_1455" data-name="Group 1455" transform="translate(-15.47 -15.75)">
    <path id="Path_95" data-name="Path 95" d="M35.463,75.042H33.147a3.394,3.394,0,0,1-3.392-3.392V59.219a3.394,3.394,0,0,1,3.392-3.392h2.317V49.284a7.884,7.884,0,0,1,7.867-7.867H54.152L51.1,36.13a5.882,5.882,0,1,1,3.183-1.84L58.4,41.416h14l4.114-7.126a5.859,5.859,0,1,1,3.183,1.84l-3.052,5.286H87.459a7.883,7.883,0,0,1,7.867,7.867v6.543h2.317a3.394,3.394,0,0,1,3.392,3.392V71.65a3.4,3.4,0,0,1-2.578,3.294V93.221a1.838,1.838,0,0,1-1.068,1.669l1.442,1.5h15.737a5.5,5.5,0,0,1,5.5,5.49V120.2a5.506,5.506,0,0,1-5.5,5.5H87.8a5.507,5.507,0,0,1-5.5-5.5V101.88a5.5,5.5,0,0,1,5.5-5.49h1.255V95.059H75.365a4.789,4.789,0,0,1-4.418,2.947H65.611a4.785,4.785,0,0,1,0-9.57h5.336a4.789,4.789,0,0,1,4.418,2.947h13.69v-.6a1.838,1.838,0,0,1,3.164-1.273l1.8,1.874h.761V82.36a7.884,7.884,0,0,1-7.321,4.983H57.071a1.838,1.838,0,1,1,0-3.676H87.459a4.193,4.193,0,0,0,4.191-4.182v-30.2a4.2,4.2,0,0,0-4.191-4.191H43.331a4.2,4.2,0,0,0-4.191,4.191v30.2a1.838,1.838,0,1,1-3.676,0Zm0-15.54H33.431V71.366h2.033Zm59.863,0V71.366h2.033V59.5ZM49.9,28.177a2.2,2.2,0,1,0,2.2,2.2A2.2,2.2,0,0,0,49.9,28.177Zm30.988,0a2.2,2.2,0,1,0,2.2,2.2A2.2,2.2,0,0,0,80.889,28.177ZM72.056,93.221a1.109,1.109,0,0,0-1.109-1.109H65.611a1.109,1.109,0,0,0,0,2.217h5.336A1.109,1.109,0,0,0,72.056,93.221Zm44.331,8.66a1.819,1.819,0,0,0-1.819-1.814H98.048a1.838,1.838,0,0,1-1.326-.565l-3.99-4.153v2.88a1.838,1.838,0,0,1-1.838,1.838H87.8a1.819,1.819,0,0,0-1.819,1.814V120.2a1.823,1.823,0,0,0,1.819,1.819h26.767a1.823,1.823,0,0,0,1.819-1.819ZM91.27,118.618a1.838,1.838,0,1,1,0-3.676h19.508a1.838,1.838,0,1,1,0,3.676Zm0-11.6a1.838,1.838,0,1,1,0-3.676h19.508a1.838,1.838,0,1,1,0,3.676Zm0,5.8a1.838,1.838,0,1,1,0-3.676h19.508a1.838,1.838,0,1,1,0,3.676Zm-63.814-3.095-.417.112a9.19,9.19,0,1,1-4.757-17.755l7.278-1.951C35.3,87.19,40.051,81.869,44.22,77.794h0A4.071,4.071,0,0,1,51,79.649L52.98,87.04a6.183,6.183,0,0,1,3.087,11.522l1.981,7.391a4.073,4.073,0,0,1-5.145,4.94h0c-5.235-1.635-10.737-3.238-16.516-3.131l2.887,10.774a1.838,1.838,0,0,1-1.3,2.251l-1.366.366a5.892,5.892,0,0,1-7.2-4.157ZM54.031,90.963l.985,3.676a2.5,2.5,0,0,0-.985-3.676ZM35.408,104.117a42.924,42.924,0,0,1,12.536,1.521L42.361,84.8a51.666,51.666,0,0,1-9.991,7.979Zm16.651,2.672q.974.293,1.936.595a.391.391,0,0,0,.4-.094.383.383,0,0,0,.107-.385L47.449,80.6a.395.395,0,0,0-.66-.176q-.712.7-1.419,1.4ZM28.919,94.1l-5.686,1.524a5.514,5.514,0,1,0,2.854,10.652l5.686-1.524Zm3.806,14.2-1.718.46,1.95,7.278a2.209,2.209,0,0,0,2.277,1.627ZM55.823,51.2a6.179,6.179,0,1,1-6.179,6.179A6.182,6.182,0,0,1,55.823,51.2Zm0,3.676a2.5,2.5,0,1,0,2.5,2.5A2.5,2.5,0,0,0,55.823,54.879ZM76.011,51.2a6.179,6.179,0,1,1-6.179,6.179A6.182,6.182,0,0,1,76.011,51.2Zm0,3.676a2.5,2.5,0,1,0,2.5,2.5A2.5,2.5,0,0,0,76.011,54.879ZM75.73,69.534a10.717,10.717,0,0,1-21.417,0,1.838,1.838,0,0,1,1.837-1.912H73.894a1.837,1.837,0,0,1,1.837,1.912ZM71.714,71.3H58.33a7.043,7.043,0,0,0,13.384,0Zm53.829-35.452a4.882,4.882,0,0,1-4.876,4.872H107.724l-5.4,5.622a1.839,1.839,0,0,1-3.164-1.273V40.718h-.731a4.882,4.882,0,0,1-4.877-4.872V20.626a4.887,4.887,0,0,1,4.877-4.876h22.239a4.886,4.886,0,0,1,4.876,4.876Zm-3.676,0V20.626a1.2,1.2,0,0,0-1.2-1.2H98.427a1.2,1.2,0,0,0-1.2,1.2v15.22a1.2,1.2,0,0,0,1.2,1.2H101a1.838,1.838,0,0,1,1.838,1.838V40.5l2.78-2.894a1.839,1.839,0,0,1,1.326-.565h13.726A1.2,1.2,0,0,0,121.866,35.846ZM109.547,20.257a5.272,5.272,0,0,1,5.272,5.272,4.513,4.513,0,0,1-1.653,3.338c-.339.322-.715.631-1.049.975a1.34,1.34,0,0,0-.489.848,1.838,1.838,0,1,1-3.67-.216v0a5.048,5.048,0,0,1,1.738-3.408c.354-.343.739-.659,1.072-.995.164-.166.374-.3.374-.54a1.6,1.6,0,1,0-3.191,0,1.838,1.838,0,0,1-3.676,0,5.272,5.272,0,0,1,5.272-5.272Zm.277,16.237a1.725,1.725,0,1,1,1.725-1.725A1.726,1.726,0,0,1,109.824,36.495Z" transform="translate(0)" fill-rule="evenodd"/>
  </g>
</svg>
