<svg xmlns="http://www.w3.org/2000/svg" width="114.203" height="113.944" viewBox="0 0 114.203 113.944">
  <g id="Group_1459" data-name="Group 1459" transform="translate(-5.5 -6.085)">
    <path id="Path_96" data-name="Path 96" d="M7.5,98.821v11.111a6.652,6.652,0,0,0,6.652,6.652H25.461a3.327,3.327,0,0,0,3.326-3.326v-32.2a3.327,3.327,0,0,0-3.326-3.326H14.152A6.652,6.652,0,0,0,7.5,84.381V95.495m6.652-17.83A44.854,44.854,0,0,1,33.525,40.32M104.4,77.665c0-23.085-18.712-39.58-41.8-39.58A43.217,43.217,0,0,0,33.046,49.218,38.194,38.194,0,0,0,20.8,77.665" transform="translate(0 -23.348)" fill="none" stroke="#000" stroke-miterlimit="10" stroke-width="4"/>
    <path id="Path_97" data-name="Path 97" d="M83.632,15.163A51.067,51.067,0,0,1,109.91,8.085a49.818,49.818,0,0,1,34.258,13.082,44.81,44.81,0,0,1,14.191,33.15m-31.6,57.06c14.708,0,25.351-4.685,25.351-18.14M68.287,54.381V93.236m96.725-17.763V86.584a6.652,6.652,0,0,1-6.652,6.652H147.051a3.327,3.327,0,0,1-3.326-3.326v-32.2a3.327,3.327,0,0,1,3.326-3.326h11.309a6.652,6.652,0,0,1,6.652,6.652V72.147M151.533,54.381V93.236m-31.425,24.792H106.8a6.652,6.652,0,1,1,0-13.3h13.3a6.652,6.652,0,0,1,0,13.3Z" transform="translate(-47.308)" fill="none" stroke="#000" stroke-miterlimit="10" stroke-width="4"/>
    <path id="Path_98" data-name="Path 98" d="M154.326,78.6a28.826,28.826,0,0,0-17,52.108v11.345l12.052-6.225A28.827,28.827,0,1,0,154.326,78.6Z" transform="translate(-91.835 -54.875)" fill="none" stroke="#000" stroke-miterlimit="10" stroke-width="4"/>
    <path id="Path_99" data-name="Path 99" d="M188.148,121.063l3.064-3.393,5.14,2.129-.233,4.566,3.1,3.1,4.566-.233,2.129,5.14-3.393,3.064v4.383l3.393,3.064-2.129,5.14-4.566-.233-3.1,3.1.233,4.566-5.14,2.129-3.064-3.393h-4.383l-3.064,3.393-5.14-2.129.233-4.566-3.1-3.1-4.566.233L166,142.881l3.393-3.064v-4.383L166,132.371l2.129-5.14,4.566.233,3.1-3.1-.233-4.566,5.14-2.129,3.064,3.393Z" transform="translate(-123.355 -85.286)" fill="none" stroke="#000" stroke-miterlimit="10" stroke-width="4"/>
    <circle id="Ellipse_26" data-name="Ellipse 26" cx="6.652" cy="6.652" r="6.652" transform="translate(55.95 45.688)" fill="none" stroke="#000" stroke-miterlimit="10" stroke-width="4"/>
    <path id="Path_100" data-name="Path 100" d="M256.993,466.415v3.326m6.652-3.326v3.326" transform="translate(-194.171 -356.701)" fill="none" stroke="#000" stroke-miterlimit="10" stroke-width="4"/>
  </g>
</svg>
