<svg xmlns="http://www.w3.org/2000/svg" width="110.101" height="111.215" viewBox="0 0 110.101 111.215">
  <g id="Group_1460" data-name="Group 1460" transform="translate(-8.108 -5.5)">
    <path id="Path_101" data-name="Path 101" d="M109.327,144.155a15.681,15.681,0,1,0,4.257-5.39" transform="translate(-76.594 -100.2)" fill="none" stroke="#000" stroke-linecap="round" stroke-linejoin="round" stroke-miterlimit="10" stroke-width="4"/>
    <path id="Path_102" data-name="Path 102" d="M71.475,77.584A32.646,32.646,0,0,0,46.865,66.4H43.784A28.838,28.838,0,0,0,15.608,89.092h0a6.306,6.306,0,0,0,6.161,7.649H50.12M48.491,8.036l2.771,4.66a1.1,1.1,0,0,0,.7.509L57.25,14.4a1.1,1.1,0,0,1,.582,1.793l-3.576,4.075a1.1,1.1,0,0,0-.268.824l.5,5.4A1.1,1.1,0,0,1,52.962,27.6l-4.98-2.141a1.1,1.1,0,0,0-.866,0L42.135,27.6A1.1,1.1,0,0,1,40.61,26.49l.5-5.4a1.1,1.1,0,0,0-.268-.824l-3.576-4.075a1.1,1.1,0,0,1,.582-1.793l5.288-1.195a1.1,1.1,0,0,0,.7-.509l2.771-4.66a1.1,1.1,0,0,1,1.885,0ZM19.547,11.593l2.269,3.817a.9.9,0,0,0,.574.417l4.331.979a.9.9,0,0,1,.477,1.468l-2.929,3.337a.9.9,0,0,0-.219.675l.408,4.421a.9.9,0,0,1-1.249.908l-4.079-1.754a.9.9,0,0,0-.71,0l-4.079,1.754a.9.9,0,0,1-1.249-.908l.408-4.421a.9.9,0,0,0-.219-.675l-2.928-3.337a.9.9,0,0,1,.477-1.468l4.331-.979a.9.9,0,0,0,.574-.417L18,11.593a.9.9,0,0,1,1.544,0Zm54.588,0L71.865,15.41a.9.9,0,0,1-.574.417l-4.331.979a.9.9,0,0,0-.477,1.468l2.928,3.337a.9.9,0,0,1,.219.675l-.408,4.421a.9.9,0,0,0,1.249.908l4.079-1.754a.9.9,0,0,1,.71,0l4.079,1.754a.9.9,0,0,0,1.249-.908l-.408-4.421a.9.9,0,0,1,.219-.675l2.928-3.337a.9.9,0,0,0-.477-1.468l-4.331-.979a.9.9,0,0,1-.574-.417l-2.269-3.817a.9.9,0,0,0-1.543,0ZM116.209,83.41h0a4.472,4.472,0,0,0-4.472-4.472l-16.254-.025a3.861,3.861,0,0,1-3.855-3.86V63.5a6.936,6.936,0,0,0-3.238-5.868,2.867,2.867,0,0,0-4.277,1.622L77.653,81.313a8.294,8.294,0,0,1-7.959,5.963H65.276v23.072h6.833a26.376,26.376,0,0,1,10.523,2.123,26.227,26.227,0,0,0,10.457,2.175l18.647.07a4.472,4.472,0,0,0,4.472-4.472h0a4.472,4.472,0,0,0-4.472-4.472,4.472,4.472,0,0,0,4.472-4.472h0a4.472,4.472,0,0,0-4.472-4.472,4.472,4.472,0,0,0,4.472-4.472h0a4.472,4.472,0,0,0-4.472-4.472,4.473,4.473,0,0,0,4.472-4.473Zm0,0h0a4.472,4.472,0,0,0-4.472-4.472l-16.254-.025a3.861,3.861,0,0,1-3.855-3.86V63.5a6.936,6.936,0,0,0-3.238-5.868,2.867,2.867,0,0,0-4.277,1.622L77.653,81.313a8.294,8.294,0,0,1-7.959,5.963H65.276v23.072h6.833a26.376,26.376,0,0,1,10.523,2.123,26.227,26.227,0,0,0,10.457,2.175l18.647.07a4.472,4.472,0,0,0,4.472-4.472h0a4.472,4.472,0,0,0-4.472-4.472,4.472,4.472,0,0,0,4.472-4.472h0a4.472,4.472,0,0,0-4.472-4.472,4.472,4.472,0,0,0,4.472-4.472h0a4.472,4.472,0,0,0-4.472-4.472,4.473,4.473,0,0,0,4.472-4.473Zm-4.472,4.472h-5.311m5.311,8.945h-5.311m5.311,8.944h-5.311" fill="none" stroke="#000" stroke-linecap="round" stroke-linejoin="round" stroke-miterlimit="10" stroke-width="4"/>
    <path id="Path_103" data-name="Path 103" d="M212.188,388.125h-10.7a1.775,1.775,0,0,1-1.775-1.775V359.068a1.775,1.775,0,0,1,1.775-1.775h10.7a1.775,1.775,0,0,1,1.775,1.775V386.35A1.775,1.775,0,0,1,212.188,388.125Z" transform="translate(-148.686 -274.334)" fill="none" stroke="#000" stroke-linecap="round" stroke-linejoin="round" stroke-miterlimit="10" stroke-width="4"/>
  </g>
</svg>
