<svg xmlns="http://www.w3.org/2000/svg" width="24.596" height="17.292" viewBox="0 0 24.596 17.292">
  <path id="youtube" d="M38.982,66.706a3.087,3.087,0,0,0-2.175-2.188C34.889,64,27.2,64,27.2,64s-7.691,0-9.61.518a3.087,3.087,0,0,0-2.175,2.188,34.826,34.826,0,0,0,0,11.915,3.04,3.04,0,0,0,2.175,2.152c1.918.518,9.61.518,9.61.518s7.691,0,9.61-.518a3.047,3.047,0,0,0,2.175-2.152,34.826,34.826,0,0,0,0-11.915Zm-14.3,9.614V69.007l6.426,3.656L24.685,76.32Z" transform="translate(-14.9 -64)" fill="#5dbe3f"/>
</svg>
